HIERARCHY
ROOT Hips
{
 OFFSET 0.000000 0.000000 0.000000
 CHANNELS 6 Xposition Yposition Zposition Yrotation Xrotation Zrotation
 JOINT Chest
 {
  OFFSET 0.000000 9.588913 -0.003946
  CHANNELS 3 Yrotation Xrotation Zrotation
  JOINT Chest2
  {
   OFFSET 0.000000 9.541882 0.008053
   CHANNELS 3 Yrotation Xrotation Zrotation
   JOINT Chest3
   {
    OFFSET 0.000000 9.501360 0.000000
    CHANNELS 3 Yrotation Xrotation Zrotation
    JOINT Chest4
    {
     OFFSET 0.000000 9.491660 0.000000
     CHANNELS 3 Yrotation Xrotation Zrotation
     JOINT Neck
     {
      OFFSET 0.000000 14.331917 0.000000
      CHANNELS 3 Yrotation Xrotation Zrotation
      JOINT Head
      {
       OFFSET 0.000000 8.884799 0.017034
       CHANNELS 3 Yrotation Xrotation Zrotation
       End Site
       {
        OFFSET 0.000000 16.896195 0.008993
       }
      }
     }
     JOINT RightCollar
     {
      OFFSET -2.923010 9.499495 0.000000
      CHANNELS 3 Yrotation Xrotation Zrotation
      JOINT RightShoulder
      {
       OFFSET -13.795216 0.000000 0.000000
       CHANNELS 3 Yrotation Xrotation Zrotation
       JOINT RightElbow
       {
        OFFSET -30.272209 0.000000 0.000000
        CHANNELS 3 Yrotation Xrotation Zrotation
        JOINT RightWrist
        {
         OFFSET -24.478199 0.000000 0.000000
         CHANNELS 3 Yrotation Xrotation Zrotation
         End Site
         {
          OFFSET -18.090752 0.000000 0.000000
         }
        }
       }
      }
     }
     JOINT LeftCollar
     {
      OFFSET 2.923010 9.499495 0.000000
      CHANNELS 3 Yrotation Xrotation Zrotation
      JOINT LeftShoulder
      {
       OFFSET 13.795216 0.000000 0.000000
       CHANNELS 3 Yrotation Xrotation Zrotation
       JOINT LeftElbow
       {
        OFFSET 30.272209 0.000000 0.000000
        CHANNELS 3 Yrotation Xrotation Zrotation
        JOINT LeftWrist
        {
         OFFSET 24.478199 0.000000 0.000000
         CHANNELS 3 Yrotation Xrotation Zrotation
         End Site
         {
          OFFSET 18.090752 0.000000 0.000000
         }
        }
       }
      }
     }
    }
   }
  }
 }
 JOINT RightHip
 {
  OFFSET -7.826875 0.019532 0.001973
  CHANNELS 3 Yrotation Xrotation Zrotation
  JOINT RightKnee
  {
   OFFSET 0.000000 -40.546152 -0.001885
   CHANNELS 3 Yrotation Xrotation Zrotation
   JOINT RightAnkle
   {
    OFFSET 0.000000 -39.417092 -0.003189
    CHANNELS 3 Yrotation Xrotation Zrotation
    JOINT RightToe
    {
     OFFSET 0.000000 -7.579396 17.243563
     CHANNELS 3 Yrotation Xrotation Zrotation
     End Site
     {
      OFFSET 0.000000 -1.500329 6.694466
     }
    }
   }
  }
 }
 JOINT LeftHip
 {
  OFFSET 7.826875 0.019532 0.001973
  CHANNELS 3 Yrotation Xrotation Zrotation
  JOINT LeftKnee
  {
   OFFSET 0.000000 -40.546152 -0.001885
   CHANNELS 3 Yrotation Xrotation Zrotation
   JOINT LeftAnkle
   {
    OFFSET 0.000000 -39.417092 -0.003189
    CHANNELS 3 Yrotation Xrotation Zrotation
    JOINT LeftToe
    {
     OFFSET 0.000000 -7.579396 17.243563
     CHANNELS 3 Yrotation Xrotation Zrotation
     End Site
     {
      OFFSET 0.000000 -1.500329 6.694466
     }
    }
   }
  }
 }
}
MOTION
Frames: 7
Frame Time: 0.008333
-173.857852 87.192148 141.774112 87.946610 -10.286050 2.239850 1.666312 1.829764 1.574714 0.888739 1.132095 1.065857 1.114261 1.412504 1.335119 0.888746 1.132088 1.065853 2.942859 18.614191 -7.880918 5.069935 -5.629043 -9.346196 -1.865971 -0.097826 -4.094566 11.910691 -9.727303 85.682304 35.148508 -0.572254 15.755677 7.210718 -4.856105 2.538491 -1.100749 3.846197 3.521964 3.654997 -0.591402 -94.220806 -10.298938 -3.903698 -1.743344 -8.579906 1.513710 -3.187479 -16.874694 22.297411 -16.552217 -2.013701 13.012009 -1.087735 0.164346 -10.140888 24.913572 1.446452 -13.128393 -10.656893 16.650530 1.990376 2.556259 -0.143903 4.424707 1.784593 1.259660 -0.970079 -1.783298 0.059840 -0.737178 0.522988
-173.327116 87.134789 141.164021 88.714663 -10.489893 2.411805 1.569854 1.871327 1.485847 0.850098 1.133261 0.987462 1.065722 1.414258 1.237005 0.850106 1.133253 0.987459 2.559341 18.629145 -7.787778 4.618913 -5.641462 -9.136279 -1.945596 -0.032489 -3.938365 11.350627 -9.605972 85.739254 35.048361 -0.324319 15.684070 7.257974 -4.860369 2.467028 -1.080104 3.814853 3.505542 3.568268 -0.649845 -94.103952 -10.212281 -3.733183 -1.985895 -8.549044 1.473993 -3.167061 -17.239675 21.909215 -17.249958 -2.000040 14.480613 -1.121643 0.225576 -9.825611 25.281315 1.608612 -14.749622 -10.792844 15.492881 2.570668 2.201940 -0.291288 4.565820 1.522197 1.574570 -1.076821 -1.710837 0.058385 -0.777438 0.600714
-172.801993 87.085378 140.555319 89.507429 -10.670736 2.588310 1.465128 1.904942 1.392235 0.811355 1.128849 0.909329 1.017039 1.409024 1.139205 0.811363 1.128842 0.909325 2.160391 18.654292 -7.695707 4.153129 -5.641298 -8.925064 -2.035587 0.052000 -3.797498 10.694726 -9.463766 85.835089 34.939228 0.004588 15.608628 7.335546 -4.873585 2.369845 -1.063014 3.801705 3.491405 3.476405 -0.752509 -93.986429 -10.094211 -3.555300 -2.222926 -8.495808 1.438080 -3.155211 -17.600713 21.396471 -17.934994 -1.949614 16.112981 -1.153033 0.306822 -9.457034 25.552381 1.758938 -16.485596 -10.785919 14.185087 3.085010 1.792277 -0.419043 4.758169 1.277512 1.951747 -1.287067 -1.640117 0.053118 -0.744938 0.658557
-172.283499 87.045795 139.947846 90.310770 -10.826365 2.769139 1.356059 1.930965 1.285160 0.772753 1.119630 0.835399 0.968537 1.397756 1.046651 0.772761 1.119624 0.835396 1.750584 18.689826 -7.608449 3.678675 -5.627638 -8.718228 -2.130620 0.149790 -3.681103 9.972794 -9.298672 85.980542 34.815152 0.391551 15.507480 7.428681 -4.885541 2.267574 -1.048512 3.804496 3.481608 3.368690 -0.893163 -93.879479 -9.964645 -3.391360 -2.438471 -8.418895 1.422595 -3.157630 -17.908602 20.754756 -18.584039 -1.866305 17.926239 -1.187816 0.383348 -9.036387 25.721257 1.881118 -18.291117 -10.629166 12.780209 3.559822 1.323325 -0.553520 4.944969 1.053271 2.381062 -1.598680 -1.536659 0.045974 -0.630828 0.677255
-171.772554 87.017218 139.340026 91.107599 -10.955568 2.962428 1.250296 1.950510 1.155295 0.734712 1.105341 0.768805 0.920750 1.380117 0.963260 0.734719 1.105335 0.768803 1.333668 18.738902 -7.530313 3.200655 -5.596303 -8.521771 -2.219766 0.253755 -3.599447 9.225747 -9.104573 86.175779 34.671082 0.794387 15.358376 7.519927 -4.890928 2.172200 -1.037584 3.818554 3.473199 3.243300 -1.056637 -93.790854 -9.843165 -3.250538 -2.626739 -8.328896 1.427987 -3.170892 -18.098455 19.986962 -19.169809 -1.774348 19.932128 -1.250494 0.424857 -8.563369 25.809491 1.969928 -20.158090 -10.327259 11.359278 4.010950 0.783974 -0.647966 5.095047 0.870160 2.776939 -1.996211 -1.410585 0.039036 -0.443251 0.673140
-171.269965 86.999457 138.732594 91.880233 -11.055636 3.165251 1.154955 1.964116 1.004173 0.698305 1.086022 0.712101 0.875029 1.356155 0.892230 0.698311 1.086017 0.712100 0.917907 18.801931 -7.464074 2.728637 -5.546258 -8.340983 -2.290570 0.356642 -3.559357 8.489054 -8.874718 86.411144 34.507707 1.176395 15.149581 7.592359 -4.892364 2.083932 -1.025427 3.836645 3.461142 3.105583 -1.225818 -93.720276 -9.744944 -3.126950 -2.791080 -8.240106 1.436994 -3.185095 -18.108060 19.101421 -19.650531 -1.722590 22.131561 -1.388301 0.428440 -8.028247 25.846796 2.024065 -22.101148 -9.885639 10.037778 4.440321 0.191721 -0.647983 5.199663 0.726619 3.033288 -2.461254 -1.253142 0.032655 -0.198633 0.654767
-170.775635 86.991141 138.127142 92.615180 -11.125392 3.373996 1.075504 1.977534 0.827054 0.664615 1.063992 0.666066 0.832737 1.328769 0.834543 0.664620 1.063988 0.666065 0.513962 18.871022 -7.406397 2.273162 -5.486394 -8.174556 -2.337040 0.442817 -3.552066 7.795923 -8.604988 86.676439 34.324736 1.512342 14.868866 7.638241 -4.889353 2.002726 -1.004725 3.840113 3.451859 2.956133 -1.389818 -93.665002 -9.678515 -3.023445 -2.940388 -8.167156 1.438582 -3.186305 -17.901235 18.106155 -20.000675 -1.756114 24.517202 -1.638706 0.402143 -7.417019 25.832434 2.035681 -24.131294 -9.285619 8.952845 4.848499 -0.422998 -0.565588 5.271402 0.602525 3.086255 -3.015942 -1.026652 0.027477 0.115008 0.610806
